<?xml version="1.0" encoding="UTF-8" standalone="no"?>
<!-- Created with Inkscape (http://www.inkscape.org/) -->

<svg
   width="71.986626mm"
   height="63.016209mm"
   viewBox="0 0 71.986624 63.016208"
   version="1.1"
   id="svg1"
   xml:space="preserve"
   xmlns="http://www.w3.org/2000/svg"
   xmlns:svg="http://www.w3.org/2000/svg"><defs
     id="defs1"><style
       id="style1">.cls-1,.cls-5{isolation:isolate;}.cls-2{fill:#b82f26;}.cls-3,.cls-4{fill:#f1f2f2;}.cls-4{opacity:0.1;}.cls-5{fill:#dd3c2c;}</style><style
       id="style1-7">.cls-1,.cls-5{isolation:isolate;}.cls-2{fill:#b82f26;}.cls-3,.cls-4{fill:#f1f2f2;}.cls-4{opacity:0.1;}.cls-5{fill:#dd3c2c;}</style></defs><g
     id="layer1"
     transform="translate(-256.78526,-32.379068)"><g
       id="g4"
       transform="matrix(0.1643021,0.01437458,-0.01437457,0.1643021,262.36671,27.578009)">
	<g
   id="g2">
		<path
   style="fill:#364563"
   d="m 124.203,237.148 c 1.979,1.98 4.624,15.082 -5.271,24.979 L 4.593,376.464 c -6.123,6.124 -6.123,16.144 0,22.268 l 7.355,7.355 c 6.123,6.123 16.143,6.123 22.267,0 l 114.339,-114.34 c 9.896,-9.896 22.998,-7.25 24.978,-5.271 z"
   id="path1-1" />
		
			<rect
   x="44.569"
   y="311.16501"
   transform="matrix(0.7071,-0.7071,0.7071,0.7071,-211.8256,152.8296)"
   style="fill:#4a5881"
   width="68"
   height="41.891998"
   id="rect1" />
		<path
   style="fill:#ff8661"
   d="M 39.716,341.341 4.593,376.464 c -6.123,6.124 -6.123,16.144 0,22.268 l 7.355,7.355 c 6.123,6.123 16.143,6.123 22.267,0 l 35.123,-35.124 z"
   id="path2-3" />
	</g>
	<path
   style="fill:#b8875f"
   d="m 404.246,92.431 c 6.295,-6.297 8.322,-18.03 4.504,-26.074 L 394.953,37.296 c -3.82,-8.043 -13.525,-17.75 -21.57,-21.568 L 344.322,1.93 C 336.279,-1.889 324.545,0.138 318.25,6.435 L 114.756,209.927 c -6.296,6.297 -6.296,16.6 0,22.896 l 63.1,63.1 c 6.297,6.297 16.6,6.297 22.895,0 z"
   id="path3-2" />
	<path
   style="fill:#8c5947"
   d="m 313.525,17.711 c -0.414,-1.818 -0.822,-3.61 -1.199,-5.352 L 299.775,24.91 c 4.086,18.286 7.373,38.393 -8.615,54.38 -13.68,13.682 -30.959,13.476 -49.259,13.25 -3.234,-0.04 -6.489,-0.079 -9.728,-0.029 l -17.23,17.229 c 7.414,-2.424 16.625,-2.322 26.776,-2.201 19.647,0.24 41.897,0.508 60.048,-17.642 22.983,-22.983 16.497,-51.421 11.758,-72.186 z m -41.365,164.87 c -20.66,20.552 -20.648,42.222 -20.639,59.634 0.001,0.993 0,1.971 -0.003,2.942 l 15.238,-15.238 c 0.731,-12.446 3.733,-24.518 15.981,-36.703 12.977,-12.907 24.691,-15.143 38.131,-17.409 l 20.041,-20.039 c -7.309,2.682 -14.322,3.865 -21.512,5.075 -15.018,2.527 -30.549,5.139 -47.237,21.738 z"
   id="path4-1" />
</g></g></svg>
